<?xml version="1.0" encoding="UTF-8"?>
<!-- Generator: Adobe Illustrator 15.0.2, SVG Export Plug-In  -->
<!DOCTYPE svg PUBLIC "-//W3C//DTD SVG 1.1//EN" "http://www.w3.org/Graphics/SVG/1.1/DTD/svg11.dtd" [
	<!ENTITY ns_flows "http://ns.adobe.com/Flows/1.0/">
]>
<svg version="1.1" xmlns="http://www.w3.org/2000/svg" xmlns:xlink="http://www.w3.org/1999/xlink" xmlns:a="http://ns.adobe.com/AdobeSVGViewerExtensions/3.0/" x="0px" y="0px" width="58px" height="58px" viewBox="0 0 58 58" style="overflow:visible;enable-background:new 0 0 58 58;" xml:space="preserve">
<defs>
</defs>
<circle style="fill:#F49AC1;stroke:#1D1D1B;" cx="29" cy="29" r="28.5"/>
<circle style="fill:#FFFFFF;stroke:#1D1D1B;" cx="29" cy="29" r="20.067"/>
<path style="fill:#1D1D1B;" d="M38.417,16.791c-1.426-2.494-4.154-3.742-8.198-3.742c-1.056,0-2.011,0.076-2.843,0.227v-0.449  h-0.491l-8.801,4.023v2.147c0.589,0,1.101,0.208,1.521,0.624c0.418,0.416,0.629,0.921,0.629,1.514v17.542l0.005-0.198  c0,0.594-0.213,1.099-0.632,1.521c-0.419,0.422-0.932,0.63-1.532,0.63h-0.268v2.392h12.404c4.044,0,6.78-1.25,8.206-3.752  c1.188-2.078,1.782-5.824,1.782-11.235S39.605,18.876,38.417,16.791z M32.705,41.438c-0.287,0.29-0.636,0.442-1.039,0.442h-0.997  v-1.283h-1.17c-0.595,0-1.092-0.204-1.508-0.623c-0.416-0.419-0.615-0.92-0.615-1.515c0-0.019,0-0.036,0-0.048V15.424  c0.139-0.792,0.611-1.176,1.39-1.176h2.9c0.395,0,0.742,0.135,1.029,0.416s0.436,0.61,0.436,0.999v24.679v0.05  C33.131,40.793,32.992,41.147,32.705,41.438z"/>
<path style="fill:#F6B7C5;" d="M34.21,17.688c-0.014-0.369-0.026-0.735-0.039-1.082h2.415c0.291,0.312,0.554,0.675,0.792,1.07  L34.21,17.688z"/>
<path style="fill:#F6B7C5;" d="M34.275,20.177c0-0.485,0-0.832,0-1.075h3.766c0.138,0.485,0.238,0.832,0.297,1.075H34.275z"/>
<path style="fill:#F6B7C5;" d="M34.275,22.673v-1.062l4.437-0.014c0.04,0.278,0.075,0.625,0.121,1.075H34.275z"/>
<path style="fill:#F6B7C5;" d="M34.275,25.169v-1.075h4.677c0.013,0.312,0.025,0.659,0.039,1.075H34.275z"/>
<polygon style="fill:#F6B7C5;" points="34.28,27.666 34.26,26.625 39.024,26.625 39.024,27.666 "/>
<path style="fill:#F6B7C5;" d="M39.024,30.162h-4.75v-1.04h4.75C39.024,29.815,39.024,30.162,39.024,30.162z"/>
<path style="fill:#F6B7C5;" d="M22.103,16.859l-1.197-0.009l1.812-0.842C22.512,16.246,22.308,16.53,22.103,16.859z"/>
<path style="fill:#F6B7C5;" d="M38.912,32.692h-4.637v-1.075h4.696C38.951,32.068,38.931,32.45,38.912,32.692z"/>
<path style="fill:#F6B7C5;" d="M21.104,19.191c-0.225-0.342-0.529-0.644-0.911-0.921h1.258  C21.264,18.755,21.149,19.032,21.104,19.191z"/>
<path style="fill:#F6B7C5;" d="M38.566,35.188h-4.291c0-0.485,0-0.832,0-1.075h4.528C38.71,34.564,38.631,34.946,38.566,35.188z"/>
<path style="fill:#F6B7C5;" d="M37.942,37.685h-3.667c0-0.485,0-0.833,0-1.075h4.053C38.216,36.957,38.087,37.338,37.942,37.685z"/>
<path style="fill:#F6B7C5;" d="M36.16,40.146h-2.079c0.026-0.277,0.053-0.624,0.079-1.04h2.98  C36.803,39.557,36.477,39.904,36.16,40.146z"/>
<path style="fill:#F6B7C5;" d="M21.459,39.579c0.132-0.317,0.217-0.643,0.258-0.98c0.244,0.534,0.409,0.868,0.495,1L21.459,39.579z"/>
<path style="fill:#F6B7C5;" d="M19.172,41.845l0.02-0.181c0.317-0.099,0.679-0.305,1.089-0.617H23.4  c0.356,0.312,0.705,0.589,1.048,0.797H19.172z"/>
<path d="M28.591,2.203c-0.123,0.543-0.043,1.089-0.066,1.632c0.243,0.124,0.51-0.106,0.733,0.067  c-0.23,0.187-0.339,0.603-0.703,0.533l-0.07,0.067v2.132l0.336,0.333c-0.153,0.173-0.208,0.503-0.499,0.5  C28.136,7.334,27.93,7.214,27.792,7V4.635c-0.173-0.21-0.49-0.023-0.733-0.034l-0.067-0.066c0.197-0.243,0.376-0.603,0.733-0.6  l0.067-0.1c0.176-0.663-0.32-1.806,0.733-1.899L28.591,2.203z"/>
<path d="M21.395,3.369c0.229,0.473,0.353,0.989,0.5,1.499c0.343-0.09,0.669-0.227,1.033-0.267c-0.033,0.243-0.08,0.653-0.399,0.733  c-0.164,0.013-0.293,0.096-0.434,0.167c-0.057,0.4,0.224,0.66,0.233,1.033C22.47,7,22.567,7.487,22.76,7.934  c0.133,0.1,0.53,0.013,0.4,0.3c-0.21,0.073-0.124,0.33-0.333,0.433c-0.22,0.02-0.403-0.047-0.566-0.167  c-0.376-0.86-0.606-1.779-0.833-2.699c-0.223-0.19-0.457,0.187-0.667,0.033c0.073-0.253,0.104-0.61,0.433-0.667  c0.053-0.52-0.536-0.976-0.133-1.433C21.241,3.642,21.198,3.426,21.395,3.369z"/>
<path d="M31.156,7.134c-0.187-0.313-0.74-0.446-0.667-0.899c0.53-0.503,1.146-0.943,1.699-1.466c-0.103-0.4-0.456-0.697-0.633-1.066  c-0.287,0.053-0.497,0.28-0.766,0.367c-1.373,0.316-0.693,1.889-0.966,2.865c0.24,0.296,0.536,0.743,0.933,0.8l0.9-0.8l-0.034-0.033  C31.466,6.977,31.326,7.091,31.156,7.134z M30.69,4.335c0.106-0.07,0.203-0.153,0.333-0.167c0.097,0.38,0.636,0.703,0.4,1.1  L30.59,5.935C30.623,5.471,30.657,4.868,30.69,4.335z"/>
<path d="M35.587,5.468c-0.013-0.46-0.326-0.83-0.566-1.167c-0.38,0.087-0.719,0.38-1.099,0.367c0.057-0.82,0.41-1.556,0.466-2.332  c-0.057-0.697-0.643-0.104-0.9,0c-0.126,0.286,0.244,0.49,0.067,0.799c-0.29,1.423-0.626,2.822-0.866,4.265  c0.167,0.2,0.247,0.463,0.5,0.6c0.08-0.01,0.12-0.126,0.2-0.133c0.629-0.32-0.213-0.653,0.033-1.066  c0.086-0.24,0.053-0.66,0.433-0.633c0.447-0.213,0.49,0.413,0.7,0.633c-0.067,0.533-0.483,1.169,0.1,1.599  c0.22-0.01,0.446-0.146,0.533-0.333c-0.34-0.343-0.13-0.83,0-1.2c0.13-0.393-0.293-0.636-0.333-1  C35.084,5.698,35.357,5.638,35.587,5.468z M33.655,6.034c0.06-0.403,0.14-0.792,0.267-1.166c0.209-0.057,0.403-0.16,0.633-0.167  c0.09,0.31,0.247,0.593,0.267,0.933C34.451,5.818,34.065,5.951,33.655,6.034z"/>
<path d="M26.292,7.101c-0.167-0.646-0.083-1.396-0.2-2.066c-0.067-0.533-0.69-0.573-1.1-0.699c-0.447,0.43-0.943,0.81-1.233,1.333  l0.3,2.099l0.333,0.3c0.38,0.53,0.66-0.163,0.966-0.367c0.32-0.307,0.543,0.237,0.833,0.3l0.333-0.366  C26.845,7.414,26.372,7.277,26.292,7.101z M25.126,7.567c-0.86-0.176-0.423-1.243-0.633-1.866c-0.023-0.2-0.093-0.42-0.066-0.6  c0.093-0.113,0.227-0.23,0.366-0.133c0.147,0.18,0.437,0.104,0.533,0.333c0.113,0.68,0.193,1.416,0.2,2.099  C25.393,7.457,25.289,7.68,25.126,7.567z"/>
<path d="M41.651,5.635c-0.177,0.173-0.42,0.187-0.633,0.267c-0.076-0.267-0.456-0.677,0.067-0.8c0.17,0.017,0.376-0.233,0.466,0.033  C41.548,5.315,41.688,5.438,41.651,5.635z"/>
<path d="M37.453,5.501L37.42,5.734c0.503-0.02,1.02-0.207,1.533-0.3c0.173,0.437,0.793,0.85,0.367,1.366  c-0.204,0.3-0.133,0.713-0.367,1c-0.12,0.546-0.553,1.006-0.466,1.599c-0.17,0.17-0.413,0.164-0.6,0.3  c-0.193-0.103-0.04-0.353-0.133-0.5c-0.06-0.387,0.226-0.713,0.266-1.1c0.007-0.806,1.149-1.599,0.233-2.332  c-0.336,0.013-0.653,0.08-0.933,0.233c-0.306,0.676-0.453,1.419-0.666,2.132c0.176,0.213,0.126,0.513-0.167,0.6  c-0.104,0.03-0.164,0.17-0.267,0.2c-0.926-0.58,0.043-1.423,0.066-2.132c0.067-0.443,0.583-0.87,0.2-1.333  c-0.03-0.35,0.37-0.233,0.533-0.4C37.263,5.025,37.36,5.338,37.453,5.501z"/>
<path d="M41.285,6.467c0.193,0.57-0.346,0.92-0.466,1.399c-0.223,0.49-0.49,1.023-0.733,1.533c-0.23,0.213,0.043,0.463-0.167,0.667  c-0.2,0.057-0.38,0.16-0.6,0.167c-0.33-0.443,0.11-0.79,0.2-1.199c0.333-0.69,0.667-1.376,1-2.066l-0.033-0.466  C40.738,6.454,41.122,6.154,41.285,6.467z"/>
<path d="M21.161,8.233c-0.313-0.563-0.417-1.213-0.6-1.833c-0.09-0.267-0.376-0.333-0.566-0.5c-0.25-0.097-0.553-0.367-0.8-0.167  L18.362,7.4c0.283,0.753,0.486,1.536,0.899,2.232c0.323,0.03,0.613,0.143,0.966,0.1c0.177-0.07,0.213-0.253,0.267-0.399  c0.113-0.537,0.48-0.043,0.767-0.1c0.216-0.146,0.25-0.43,0.399-0.633C21.518,8.423,21.278,8.407,21.161,8.233z M20.395,9.1  l-0.766-0.133c-0.363-0.643-0.506-1.379-0.766-2.065c-0.077-0.227,0.12-0.37,0.2-0.5c0.387,0.187,0.996,0.247,1.066,0.766  c0.05,0.567,0.31,1.043,0.466,1.566C20.635,8.9,20.498,8.99,20.395,9.1z"/>
<path d="M18.096,8.767c-0.37-0.896-1.023-1.879-1.999-2.232c-0.42-0.11-0.939-0.276-1.366-0.067  c-0.54,0.074-1.083,0.993-1.566,0.367c-0.093,0.213-0.24,0.446-0.133,0.7c-0.373,0.786-0.543,1.736-0.367,2.666  c0.23,0.816,0.703,1.679,1.533,2.099c1.006,0.34,2.076,0.026,2.832-0.633C17.759,10.855,18.389,9.919,18.096,8.767z M13.365,10.832  c-0.51-0.653-0.74-1.502-0.533-2.365c0.553,1.033,1.546,1.852,2.299,2.832l0.067,0.3C14.478,11.778,13.801,11.365,13.365,10.832z   M17.696,10.499c-0.513,0.606-1.232,1.006-2.032,1.066c0.104-0.83-0.75-1.266-0.966-1.965c0.22-0.014,0.507-0.07,0.533-0.333  c-0.023-0.23,0.137-0.543-0.2-0.6c-0.173,0.08-0.437-0.059-0.566,0.127c0.006,0.153-0.057,0.289-0.033,0.427h-0.1  c-0.367-0.451-0.873-0.891-1.1-1.427c0.623-0.007,1.143-0.607,1.799-0.697c0.853-0.117,1.516,0.368,1.999,1.001  C17.403,8.835,17.823,9.596,17.696,10.499z"/>
<path d="M44.017,8.933l-1.2-0.167c-0.13-0.07-0.463,0.033-0.333-0.267c0.353-0.263,0.437-0.727,0.766-1  c0.153-0.513,0.727-0.896,0.566-1.5c-0.073-0.07-0.137-0.153-0.233-0.167c-0.2,0.043-0.419,0.04-0.6,0.133  c0.01,0.2,0.124,0.4,0.033,0.6C42.524,7.62,41.678,8.53,41.218,9.6c-0.24,0.479-0.86,0.846-0.667,1.466  c0.153,0.28,0.413,0.026,0.633,0.066c0.183-0.16,0.066-0.443,0.1-0.666c0.23-0.204,0.316-0.86,0.8-0.566  c0.163,0.04,0.477,0.02,0.4,0.3c0.323,0.806-1.086,1.139-0.5,1.932c0.167-0.023,0.376,0.057,0.5-0.066  c-0.157-0.57,0.353-0.946,0.666-1.366c0.05-0.203-0.1-0.443,0-0.666l0.633,0.033c0.153-0.113,0.113-0.31,0.167-0.466  C43.974,9.376,44.193,9.113,44.017,8.933z M43.184,9.866c-0.453,0.007-0.906,0.01-1.3-0.133c0.144-0.303,0.25-0.62,0.533-0.866  l0.966,0.1C43.367,9.286,43.3,9.586,43.184,9.866z"/>
<path d="M6.801,26.758c0.5,0.353,0.753,0.903,0.633,1.5c-0.16,0.33-0.503,0.643-0.866,0.7c-0.483-0.017-0.846-0.323-1.232-0.566  c0.13-0.146,0.253,0.12,0.399,0.133c0.453-0.01,0.953-0.047,1.167-0.5c-0.067-0.32,0.266-0.513,0.1-0.833  c-0.723-0.6-1.776-0.1-2.665-0.3c-0.217,0.01-0.363-0.143-0.566-0.167c0.077,0.506-0.244,0.933-0.367,1.399  c-0.283,0.47-0.466,1.106-0.1,1.599c-0.236,0.097-0.31-0.243-0.466-0.367c-0.267-0.903,0.316-1.623,0.4-2.465  c-0.04-0.23,0.223-0.423,0.033-0.633l0.067-0.167C4.316,26.865,5.812,25.935,6.801,26.758z"/>
<path d="M6.235,30.589c-0.083,0.387-0.497,0.396-0.8,0.466l-1.533,0.133c-0.173,0.336-0.343,0.67-0.366,1.066  c0.17,0.15,0.376,0,0.566,0c0.533,0.046,1.169,0.043,1.699-0.1c0.11-0.09,0.16-0.363,0.333-0.267c0.1,0.19,0.543,0.32,0.3,0.566  l-0.366,0.367c-0.723,0.057-1.443,0.11-2.166,0.167c-0.103,0.137-0.189,0.28-0.333,0.4c-0.18-0.087-0.396-0.16-0.5-0.367  c0.086-0.227,0.28-0.41,0.366-0.633c-0.146-0.243-0.58-0.466-0.4-0.833c0.137-0.32,0.147-0.75,0.467-0.933  c0.676-0.057,1.396-0.01,2.032-0.167C5.712,29.973,6.095,30.373,6.235,30.589z"/>
<path d="M6.495,33.788c-0.033,0.24-0.164,0.53-0.406,0.6v0.167c0.208,0.323,0.823,0.593,0.44,1.033  c-0.133,0.167-0.114,0.483-0.397,0.5c-0.643,0.156-1.328,0.21-1.931,0.466c-0.143,0.11-0.172,0.557-0.432,0.333  c-0.19-0.153-0.35-0.36-0.233-0.6c0.063-0.137,0.087-0.38,0.3-0.366c0.646-0.193,1.396-0.14,1.999-0.433  c0.09-0.224,0.283-0.4,0.267-0.667c-0.203-0.727-0.899-0.16-1.333-0.2l-0.667,0.2c-0.157,0.213-0.22,0.463-0.4,0.667  c-0.22-0.05-0.39-0.297-0.533-0.467c0.093-1.259,1.566-0.883,2.399-1.199c0.16-0.093,0.184-0.303,0.33-0.433  C6.125,33.458,6.305,33.635,6.495,33.788z"/>
<path d="M7.467,37.52c-0.176,0.043-0.356-0.11-0.533-0.167c-0.533,0.176-1.086,0.306-1.599,0.533  c0.017,0.374-0.493,0.923,0.066,1.133c0.83-0.16,1.629-0.383,2.366-0.766l0.6-1.366c0.187-0.116,0.333,0.067,0.5,0.1  c0.247,0.34-0.193,0.563-0.233,0.866c-0.01,1.363-1.576,1.089-2.366,1.633c-0.636-0.027-1.14-0.57-1.732-0.8  c-0.183-0.387,0.1-0.743,0.1-1.133c0.086-0.437,0.6-0.4,0.899-0.6c0.353-0.073,0.703-0.354,1.066-0.2  C6.911,36.959,7.271,37.189,7.467,37.52z"/>
<path d="M8.733,40.251c0.19,0.177,0.513,0.24,0.566,0.533c0.007,0.406-0.046,0.919,0.2,1.266c-0.54-0.187-0.906-0.793-0.933-1.366  c-0.213-0.193-0.556-0.19-0.833-0.133c-0.123,0.1-0.256,0.163-0.366,0.3c0.543,0.37,0.993,0.95,1.066,1.599  c-0.02,0.68-0.546,1.27-1.166,1.5l-0.566-0.367c-0.183-0.926-0.193-2.039-1.133-2.532c0.483,0.083,0.993,0.38,1.333,0.833l0.399,1  c0.147-0.086,0.354-0.18,0.4-0.366c0.027-0.796-0.42-1.513-1.133-1.799c-0.053-0.053-0.153-0.13-0.066-0.2  C7.078,39.822,7.994,40.145,8.733,40.251z"/>
<path d="M55.496,31.324c0.689-0.114,0.05-0.649-0.074-0.896c-0.296-0.103-0.468,0.283-0.792,0.132  c-1.442-0.171-2.864-0.391-4.322-0.511c-0.186,0.183-0.441,0.284-0.556,0.548c0.017,0.079,0.136,0.109,0.149,0.188  c0.371,0.601,0.633-0.267,1.065-0.055C51.213,30.797,54.717,31.332,55.496,31.324z"/>
<path d="M54.532,26.777c-0.655,0.127-1.398-0.002-2.074,0.073c-0.536,0.034-0.614,0.653-0.766,1.055  c0.402,0.472,0.75,0.991,1.255,1.312l2.113-0.171l0.32-0.314c0.552-0.347-0.123-0.668-0.307-0.987  c-0.286-0.338,0.27-0.528,0.35-0.813l-0.345-0.355C54.878,26.244,54.713,26.708,54.532,26.777z M54.926,27.97  c-0.229,0.847-1.266,0.346-1.901,0.518c-0.201,0.011-0.425,0.067-0.603,0.03c-0.107-0.1-0.216-0.24-0.111-0.374  c0.189-0.135,0.13-0.429,0.365-0.512c0.686-0.071,1.425-0.106,2.107-0.071C54.833,27.697,55.05,27.813,54.926,27.97z"/>
<path d="M51.427,36.017l0.057,1.209c-0.045,0.141,0.118,0.449-0.201,0.377c-0.324-0.299-0.794-0.296-1.124-0.57  c-0.532-0.057-1.014-0.55-1.578-0.282c-0.055,0.085-0.125,0.162-0.121,0.26c0.08,0.188,0.117,0.405,0.241,0.565  c0.195-0.046,0.371-0.194,0.583-0.143c1.125,0.292,2.175,0.957,3.311,1.212c0.516,0.148,0.99,0.69,1.563,0.386  c0.247-0.202-0.05-0.411-0.051-0.635c-0.191-0.15-0.448,0.016-0.673,0.024c-0.242-0.188-0.903-0.153-0.704-0.682  c0.009-0.168-0.068-0.472,0.221-0.448c0.733-0.466,1.32,0.859,1.992,0.137c-0.054-0.16-0.014-0.38-0.157-0.479  c-0.532,0.258-0.995-0.174-1.465-0.404c-0.209-0.012-0.417,0.179-0.655,0.122l-0.083-0.628c-0.14-0.13-0.326-0.055-0.489-0.078  C51.871,35.978,51.572,35.81,51.427,36.017z M52.498,36.665c0.089,0.444,0.176,0.889,0.107,1.302  c-0.324-0.085-0.655-0.132-0.949-0.365l-0.079-0.968C51.894,36.591,52.201,36.601,52.498,36.665z"/>
<path d="M50.813,44.75l-2.099-1.933c-0.173-0.17-0.466-0.203-0.633-0.466c-0.423,0-0.886,0.1-1.266,0.3l-0.2,1.799l0.066,0.2  c0.57,0.473,1.046,1.106,1.666,1.533l1.033-0.2c0.2-0.37,0.157-0.843,0.307-1.232c0.236,0.14,0.431,0.356,0.673,0.533v0.133  c-0.416,0.323-0.677,0.747-0.907,1.166c-0.01,0.32-0.14,0.673,0.03,0.933c0.06-0.046,0.021-0.133,0.032-0.2  c0.23-0.376,0.192-0.863,0.599-1.167c0.273-0.073,0.476-0.326,0.732-0.433C50.887,45.412,51.074,45.009,50.813,44.75z   M49.348,45.282c-0.256,0.093-0.576,0.24-0.833,0.133c-0.556-0.463-1.043-0.956-1.566-1.433c0.09-0.243-0.223-0.83,0.267-0.733  c0.28,0.05,0.643-0.1,0.899,0C48.505,43.906,49.927,44.246,49.348,45.282z"/>
<path d="M44.917,45.016c-0.124,0.167-0.13,0.47-0.367,0.5c-0.213-0.08-0.456-0.093-0.633-0.267c0.073-0.276,0.093-0.603,0.367-0.766  C44.463,44.729,45.093,44.573,44.917,45.016z"/>
<path d="M44.017,46.115c-0.09,0.3-0.077,0.64-0.267,0.9c-0.233-0.1-0.557-0.05-0.7-0.3c0.066-0.296,0.12-0.626,0.333-0.833  C43.614,45.909,43.847,45.939,44.017,46.115z"/>
<path d="M46.649,46.415c-0.51-0.243-0.636-0.986-1.366-0.7c-0.969-0.163-0.699,0.95-1.033,1.433c-0.033,0.357-0.216,0.73-0.1,1.066  l1.5,1.732l0.233,0.033c0.41-0.133,0.976,0.034,1.232-0.399c0.014-0.717,0.403-1.276,0.4-2  C47.552,47.068,46.939,46.805,46.649,46.415z M47.016,48.781l-1.133,0.267c-0.403-0.354-0.79-0.743-1.167-1.166l-0.333-0.467  l0.167-0.766c0.31-0.09,0.653-0.093,0.966-0.167l0.367,0.433c0.433,0.41,0.886,0.773,1.299,1.232L47.016,48.781z"/>
<path d="M53.349,32.03c-0.562,0.05-1.05-0.525-1.532,0.093c-0.917,0.353-0.119,1.173-0.16,1.759  c0.153,0.324,0.185,0.738,0.457,0.969l2.172,0.729l0.218-0.09c0.285-0.323,0.857-0.468,0.858-0.972  c-0.353-0.624-0.303-1.304-0.673-1.924C54.458,32.132,53.797,32.218,53.349,32.03z M54.868,33.879l-0.839,0.806  c-0.527-0.099-1.058-0.237-1.597-0.41l-0.524-0.232l-0.247-0.745c0.221-0.235,0.515-0.412,0.747-0.635l0.536,0.186  c0.582,0.132,1.156,0.214,1.746,0.4L54.868,33.879z"/>
<path d="M41.785,47.248c-0.124,0.21-0.144,0.493-0.367,0.633c-0.57-0.113-1.336-0.747-1.833-0.034  c-0.233,0.813-0.616,1.896,0.2,2.566l0.167-0.2c0.323-0.6,0.543-1.243,0.966-1.799c0.623-0.053,1.363-0.423,1.932,0  c0.643,0.597,0.89,1.356,1.333,2.033c0.017,0.606-0.267,1.089-0.4,1.632l-0.067,0.066c0.007-0.39,0.01-0.863-0.133-1.232  c-0.339-0.613-0.686-1.229-1.133-1.799c-0.513-0.083-1.046-0.117-1.599-0.1c-0.363,0.506-0.62,1.056-0.899,1.599  c0.173,0.56,0.58,1.022,0.8,1.566c0.19,0.283,0.589,0.203,0.899,0.267c0.153,0.196-0.023,0.423-0.033,0.633  c-0.18,0.443-0.687,0.14-1,0.133c-0.467-0.35-0.586-0.903-0.933-1.333c-0.44-0.696-1.053-1.363-0.899-2.266  c0.173-0.743,0.443-1.443,0.667-2.166c0.393-0.433,0.969-0.756,1.565-0.566C41.288,46.972,41.545,47.088,41.785,47.248z"/>
<path d="M49.818,39.245c0.271,0.257,0.392,0.719,0.244,1.065c-0.077,0.328-0.426,0.361-0.576,0.616  c0.132,0.28,0.341,0.486,0.632,0.62c0.516-0.581-0.418-1.523,0.504-1.895c0.761-0.149,1.651,0.315,2.117,0.899  c0.084,0.262,0.384,0.393,0.336,0.704c-0.674,0.343-1.455,0.74-1.394,1.597c-0.026,0.233,0.103,0.479,0.039,0.714  c-0.31-0.172-0.582-0.586-0.57-0.995c-0.19-0.887,0.638-1.452,1.282-1.831c0.126-0.107-0.052-0.149-0.082-0.221  c-0.477-0.183-0.971-0.593-1.438-0.221c-0.188,0.471-0.102,0.954-0.072,1.434c-0.016,0.234-0.189,0.452-0.432,0.461  c-0.766-0.256-0.997-1.11-1.327-1.82C49.474,40.154,49.643,39.586,49.818,39.245z"/>
<path d="M14.331,45.183c0.52,0.563,1.113,1.099,1.799,1.333c-0.6,0.2-1.322,0.1-1.799-0.3c-0.11-0.133-0.187-0.28-0.333-0.4  c-0.637,0.54-1.14,1.25-1.733,1.866c-0.393,0.146-0.826,0.296-1.266,0.233c0.62-0.293,0.957-1,1.433-1.5  c-0.023-0.27-0.27-0.51-0.5-0.633c0.146-0.133,0.376-0.167,0.566-0.1c0.16,0.02,0.26,0.28,0.433,0.167  c0.133-0.343,1.009-0.629,0.4-1.033c-0.477-0.276-0.713-1.213-1.366-0.766c-0.773,0.29-1.369,1.073-1.666,1.799  c-0.25,1.143,0.08,2.209,0.966,2.965c0.796,0.606,1.953,0.939,2.932,0.5l0.033,0.033c-0.396,0.606-1.179,0.51-1.833,0.466  c-1.119-0.167-2.209-1.049-2.599-2.132c-0.356-0.879,0.043-1.859,0.433-2.632c0.497-0.673,1.209-0.963,1.899-1.233  c-0.01-0.187-0.273-0.18-0.399-0.3c-0.09-0.167-0.287-0.083-0.4-0.2c0.49-0.267,0.996-0.083,1.466,0.1  C13.458,43.856,13.961,44.536,14.331,45.183z"/>
<path d="M17.229,50.18c-0.093-0.34-0.14-0.696-0.167-1.066l-0.1-0.1c-0.503,0.017-1.126-0.067-1.566,0.2l-1.066,1.766  c-0.023,0.41,0.086,0.853,0.233,1.233l0.133,0.133l1.399-0.167l0.167-0.167c-0.247-0.007-0.556,0.143-0.833,0.066  c-0.153-0.27-0.237-0.573-0.333-0.866c0.063-0.696,0.816-0.42,1.266-0.533C16.633,50.463,17.283,50.747,17.229,50.18z M15.597,50.58  c0-0.434,0.35-0.863,0.6-1.266c0.026-0.08,0.146-0.067,0.233-0.067c0.093,0.37,0.09,0.776,0.133,1.167  C16.257,50.506,15.934,50.553,15.597,50.58z"/>
<path d="M25.559,51.446c-0.083,0.143,0.213,0.17,0.066,0.3c-0.18,0.187-0.396,0.287-0.633,0.333c-0.137-0.187-0.37-0.37-0.3-0.6  C24.956,51.409,25.452,50.787,25.559,51.446z"/>
<path d="M20.562,51.58c-0.137-0.24-0.117-0.57-0.367-0.733c-0.463,0.09-0.893,0.354-1.333,0.4c0.287-0.873,0.923-1.599,1.066-2.532  l-0.233-0.4c-0.264-0.043-0.493,0.187-0.733,0.3c-0.057,0.19,0.164,0.346,0.133,0.566c-0.526,1.409-1.266,2.732-1.899,4.098  c-0.13,0.3,0.12,0.523,0.233,0.766c0.244-0.08,0.493-0.137,0.7-0.3c-0.173-0.37,0.006-0.84,0.233-1.166  c0.17-0.054,0.353-0.173,0.533-0.1c0.033,0.253,0.197,0.45,0.233,0.7c0.16,0.363-0.127,0.62-0.267,0.899  c-0.197,0.267,0.066,0.506,0.167,0.733c0.253-0.03,0.486-0.093,0.667-0.3c0.017-0.12-0.017-0.22-0.1-0.3  c-0.017-0.13,0.017-0.243,0.1-0.333c0.439-0.51-0.023-1.06-0.067-1.6l0.766-0.233C20.655,51.993,20.604,51.776,20.562,51.58z   M18.462,52.279c0.177-0.303,0.123-0.876,0.633-0.866c0.17-0.046,0.31-0.167,0.5-0.167l0.233,0.767  C19.375,52.039,18.952,52.269,18.462,52.279z"/>
<path d="M22.245,52.013v0.167c0.347-0.027,0.698-0.207,1.074-0.233c0.19,0.376,0.693,0.667,0.57,1.133  c-0.177,0.667-0.455,1.29-0.531,1.999c0.104,0.13,0.204,0.26,0.201,0.433c-0.113,0.193-0.296,0.257-0.466,0.367  c-0.32,0.05-0.406-0.26-0.533-0.466c0.07-0.723,0.36-1.353,0.533-2.033c0.143-0.37-0.236-0.606-0.3-0.933  c-0.19-0.21-0.47-0.037-0.666,0.033c-0.197,0.669-0.396,1.339-0.7,1.966c-0.107,0.247,0.209,0.32,0.1,0.566  c-0.18,0.21-0.423,0.263-0.633,0.4c-0.17-0.247-0.497-0.47-0.367-0.8l0.9-2.266c-0.057-0.21-0.16-0.403-0.167-0.633  c0.213-0.163,0.428-0.296,0.691-0.333L22.245,52.013z"/>
<path d="M35.454,53.845c-0.253-0.463-0.187-1.06-0.333-1.566l-0.133-0.167c-0.376-0.11-0.663-0.436-1.033-0.566  c-0.317,0.533-1.036,0.87-1.266,1.466c0.113,0.853,0.42,1.623,0.633,2.432c0.193,0.17,0.427,0.24,0.667,0.3  c0.124,0.173,0.376,0.026,0.5,0.2c0.137-0.163,0.313-0.37,0.367-0.6c0.207-0.506,0.51,0.09,0.766,0.133  c0.263-0.097,0.277-0.42,0.4-0.633C35.781,54.562,35.348,54.332,35.454,53.845z M33.922,54.845  c-0.264-0.713-0.497-1.436-0.633-2.199c0.057-0.17,0.12-0.323,0.3-0.4c0.307,0.097,0.526,0.403,0.833,0.5  c0.157,0.7,0.36,1.379,0.466,2.099C34.774,55.424,34.271,54.781,33.922,54.845z"/>
<path d="M25.692,52.712c-0.043,0.933-0.44,1.802-0.433,2.798c0.057,0.157,0.216,0.267,0.167,0.467  c-0.203,0.096-0.32,0.406-0.566,0.399c-0.24-0.233-0.543-0.483-0.4-0.833c0.187-0.803,0.303-1.64,0.433-2.466  c-0.08-0.086-0.223-0.187-0.133-0.3c0.2-0.157,0.387-0.347,0.6-0.466L25.692,52.712z"/>
<path d="M29.091,52.679c-0.12,0.354-0.49,0.657-0.866,0.667c-0.33,0.066-0.507-0.237-0.8-0.267c-0.2,0.237-0.3,0.513-0.3,0.833  c0.743,0.227,1.209-1.016,1.933-0.333c0.453,0.629,0.403,1.632,0.066,2.299c-0.203,0.187-0.197,0.513-0.5,0.6  c-0.593-0.47-1.279-1.013-2.032-0.6c-0.223,0.073-0.393,0.293-0.633,0.333c0.027-0.353,0.29-0.773,0.667-0.933  c0.727-0.543,1.586-0.026,2.199,0.4c0.15,0.07,0.113-0.11,0.167-0.167c-0.033-0.51,0.133-1.129-0.4-1.399  c-0.506,0.027-0.91,0.307-1.333,0.533c-0.22,0.083-0.49,0.017-0.6-0.2c-0.087-0.803,0.593-1.37,1.099-1.966  C28.121,52.746,28.708,52.662,29.091,52.679z"/>
<path d="M32.622,55.877c-0.573-0.19-0.453-0.787-0.466-1.266l-0.566-0.667l0.5-0.566c0.01-0.37-0.437-0.693-0.7-0.933  c-0.257,0.163-0.473,0.536-0.733,0.6c-0.3-0.776,0.399-1.962-0.6-2.333c-0.173,0.137-0.193,0.36-0.366,0.467  c-0.203,0.22,0.097,0.39,0.2,0.566c0.13,1.476,0.02,2.975,0.1,4.431l0.066,0.1c0.197,0.11,0.35,0.419,0.6,0.3  c0.12-0.22,0.306-0.41,0.333-0.667c-0.483-0.24-0.263-0.77-0.367-1.166c0.047-0.187,0.253-0.28,0.4-0.367  c0.77,0.33,0.437,1.109,0.566,1.766c0.21,0.17,0.443,0.266,0.667,0.399C32.316,56.297,32.732,56.197,32.622,55.877z M31.363,53.812  l-0.67,0.5c-0.023-0.347-0.142-0.93,0.235-1.166c0.213,0.09,0.261,0.36,0.435,0.533V53.812z"/>
</svg>